<svg width="64" height="106" viewBox="0 0 64 106" fill="none" xmlns="http://www.w3.org/2000/svg">
    <path d="M18.6001 81.7C18.5001 81.7 18.4001 81.7 18.4001 81.7C2.60006 74.3 -4.29994 55.6 3.00006 39.7C7.10006 30.9 15.0001 24.5 24.4001 22.2C24.7001 22.1 25.0001 22.3 25.0001 22.6C25.1001 22.9 24.9001 23.2 24.6001 23.2C8.20006 27.1 -1.99994 43.6 1.90006 60C4.10006 69.1 10.3001 76.8 18.8001 80.7C19.1001 80.8 19.2001 81.1 19.1001 81.4C19.0001 81.6 18.8001 81.7 18.6001 81.7Z"
          fill="#CCCCCC"/>
    <path d="M38.9 83.7C38.6 83.7 38.4 83.5 38.4 83.1C38.4 82.9 38.6 82.6 38.8 82.6C55.2 78.6 65.2 62.2 61.3 45.8C59.1 36.9 53.1 29.4 44.8 25.5C44.5 25.4 44.4 25.1 44.6 24.8C44.8 24.5 45 24.4 45.3 24.6C61 32.1 67.7 51 60.1 66.7C56 75.3 48.3 81.5 39.1 83.7C39 83.7 39 83.7 38.9 83.7Z"
          fill="#CCCCCC"/>
    <path d="M25.5 97.8C25.2 97.8 24.9 97.6 24.9 97.3C24.9 97.2 24.9 97.2 24.9 97.1L29.6 81.2C29.7 80.9 30 80.8 30.3 80.8C30.6 80.9 30.7 81.2 30.7 81.5L26 97.4C25.9 97.6 25.7 97.8 25.5 97.8Z"
          fill="#F2BC24"/>
    <path d="M23.4001 105.2C23.1001 105.2 22.8 105 22.8 104.7C22.8 104.6 22.8 104.6 22.8 104.5L23.7001 101.5C23.8001 101.2 24.1001 101.1 24.4001 101.1C24.7001 101.2 24.8 101.5 24.8 101.8L23.9001 104.8C23.8001 105 23.6001 105.2 23.4001 105.2Z"
          fill="#F2BC24"/>
    <path d="M31.3001 78.2C31.0001 78.2 30.7001 78 30.7001 77.7C30.7001 77.6 30.7001 77.6 30.7001 77.5L31.4001 75C31.5001 74.7 31.8001 74.6 32.1001 74.6C32.4001 74.7 32.5001 75 32.5001 75.3L31.8001 77.8C31.7001 78 31.5001 78.2 31.3001 78.2Z"
          fill="#F2BC24"/>
    <path d="M31.4001 91.2C31.1001 91.2 30.8 91 30.8 90.7C30.8 90.6 30.8 90.6 30.8 90.5L37.5 67.9C37.6 67.6 37.9001 67.5 38.2001 67.5C38.5001 67.6 38.6 67.9 38.6 68.2L31.9001 90.8C31.8001 91 31.6001 91.1 31.4001 91.2Z"
          fill="#F2BC24"/>
    <path d="M32.4001 27.4C32.1001 27.4 31.8 27.2 31.8 26.9C31.8 26.8 31.8 26.8 31.8 26.7L39.4001 1.10001C39.5001 0.80001 39.8 0.700012 40.1 0.700012C40.4 0.700012 40.5 1.10001 40.5 1.40001L32.9001 27C32.8001 27.2 32.7001 27.4 32.4001 27.4Z"
          fill="#F2BC24"/>
    <path d="M31.5 17.6C31.2 17.6 30.9 17.4 30.9 17.1C30.9 17 30.9 17 30.9 16.9L31.8 13.9C31.9 13.6 32.2 13.5 32.5 13.5C32.8 13.6 32.9 13.9 32.9 14.2L32 17.2C31.9 17.4 31.7 17.6 31.5 17.6Z"
          fill="#F2BC24"/>
    <path d="M25.4001 38.4C25.1001 38.4 24.8 38.2 24.8 37.9C24.8 37.8 24.8 37.8 24.8 37.7L29.4001 22.3C29.5001 22 29.8 21.9 30.1 21.9C30.4 22 30.5 22.3 30.5 22.6L25.8 38C25.8 38.2 25.6001 38.4 25.4001 38.4Z"
          fill="#F2BC24"/>
    <path d="M34.4001 43.4C36.4001 44 38.2001 45.2 39.4001 46.9C38.6001 45.5 38.1 44 37.8 42.4C37.7 41.8 37.6 41.1 37.5 40.4C36.2 39.8 34.8001 39.4 33.4001 39.2C33.0001 39.8 32.5 40.3 32 40.8C30.9 42 29.7 43 28.3 43.8C30.2 42.9 32.4001 42.8 34.4001 43.4Z"
          fill="#75DFD4"/>
    <path d="M55.7 58.7C53.9 57.4 47.5 52.5 43.9 46.9C44.9 49.2 45.3 51.8 44.9 54.3C45.5 54.9 46.2 55.6 46.9 56.3C47 56.4 47 56.4 47.1 56.5C47 56.5 46.9 56.5 46.9 56.5C45.9 56.7 45.1 56.9 44.2 57.2C41.7 57.9 39.4 58.8 37.1 60C36.8 60.2 36.5 60.4 36.1 60.6C34.6 61.5 33.2 62.6 32 63.8C31.6 64.3 31.1 64.8 30.7 65.3C29.3 67.1 28.1 68.9 26.9 70.8C26.9 68.6 26.8 66.3 26.5 64.1C26.4 63.4 26.3 62.8 26.2 62.1C25.8 60.4 25.2 58.7 24.4 57.2C24.2 56.9 24 56.6 23.9 56.3C21.9 52.3 23.1 47.3 26.8 44.7C24.6 45.8 22.4 46.7 20 47.3C19.6 48.2 19.4 49.2 19.2 50.2C18.8 52.8 19.2 55.6 20.4 58C20.7 58.4 21 58.9 21.2 59.4C21.8 60.5 22.2 61.7 22.5 62.9C24.3 71.7 21.8 86.6 20.7 92.7V92.8C20.7 92.9 20.7 93 20.9 93C20.9 93 20.9 93 21 93C21.1 93 21.1 93 21.2 92.9V92.8C23.4 87 29 72.9 35 66.4C35.9 65.5 36.8 64.7 37.9 64C38.4 63.7 38.9 63.4 39.3 63.2C45.3 60.1 53.7001 59.2 55.9001 59C56.0001 59 56 58.9 56.1 58.8C55.8 58.8 55.8 58.7 55.7 58.7Z"
          fill="#75DFD4"/>
    <path d="M29.4001 61.1C27.2001 60.5 25.4001 59.1 24.2001 57.2C25.1001 58.8 25.7001 60.4 26.0001 62.1C26.1001 62.7 26.2001 63.4 26.3001 64.1C27.6001 64.7 29.0001 65.1 30.5001 65.3C30.9001 64.8 31.4001 64.3 31.8001 63.8C33.0001 62.5 34.4001 61.4 35.9001 60.6C33.9001 61.5 31.6001 61.7 29.4001 61.1Z"
          fill="#F26C4A"/>
    <path d="M43.9 46.9C43.5 46.2 43 45.5 42.7 44.7C42.2 43.7 41.9 42.7 41.6 41.6C39.8 32.8 42.3 17.9 43.4 11.8C43.4 11.7 43.4 11.6 43.2 11.6C43.1 11.6 43 11.6 43 11.8C40.8 17.6 35.2 31.7 29.1 38.3C28.3 39.1 27.5 39.8 26.6 40.4C25.9 40.8 25.2 41.3 24.4 41.6C18.4 44.5 10.3 45.4 8.2 45.6C8.1 45.6 8.1 45.7 8 45.8C8 45.9 8 46 8.1 46C9.9 47.3 16.6 52.4 20.1 58.2C18.9 55.8 18.5 53.1 18.9 50.4C18.3 49.7 17.6 49.1 16.9 48.4C16.8 48.3 16.8 48.3 16.7 48.2C16.8 48.2 16.9 48.2 16.9 48.2C17.8 48 18.7 47.8 19.6 47.5C22 46.9 24.2 46 26.4 44.9C26.9 44.5 27.5 44.2 28.1 43.9C29.5 43.1 30.7 42.1 31.8 40.9C32.2 40.4 32.7 39.9 33.2 39.3C34.6 37.5 35.8 35.7 36.9 33.8C36.9 33.9 36.9 34 36.9 34C36.9 34.5 36.9 35 36.9 35.6C36.9 37.2 37.1 38.8 37.3 40.4C37.4 41.1 37.5 41.8 37.6 42.4C37.9 44 38.5 45.5 39.2 46.9C39.6 47.4 39.9 48 40.2 48.6C42 52.7 40.5 57.5 36.8 60C39.1 58.8 41.4 57.9 43.9 57.2C44.3 56.3 44.5 55.3 44.7 54.3C45.2 51.8 44.9 49.2 43.9 46.9Z"
          fill="#F26C4A"/>
</svg>
