<svg width="10" height="10" viewBox="0 0 50 50" fill="none" xmlns="http://www.w3.org/2000/svg">
    <path d="M21.3125 36.375L39.0001 18.6875L36.125 15.875L21.3125 30.6876L13.8125 23.1876L11 26L21.3125 36.375ZM25 50C21.5834 50 18.3542 49.3437 15.3125 48.0313C12.2708 46.7188 9.6146 44.9271 7.34371 42.6563C5.07291 40.3854 3.28125 37.7292 1.96875 34.6875C0.656243 31.6458 0 28.4167 0 25C0 21.5417 0.656243 18.2917 1.96875 15.25C3.28125 12.2083 5.07291 9.56246 7.34371 7.31246C9.6146 5.06246 12.2708 3.28125 15.3125 1.96875C18.3542 0.656243 21.5834 0 25 0C28.4584 0 31.7083 0.656243 34.75 1.96875C37.7917 3.28125 40.4376 5.06246 42.6876 7.31246C44.9376 9.56246 46.7188 12.2083 48.0313 15.25C49.3437 18.2917 50 21.5417 50 25C50 28.4167 49.3437 31.6458 48.0313 34.6875C46.7188 37.7292 44.9376 40.3854 42.6876 42.6563C40.4376 44.9271 37.7917 46.7188 34.75 48.0313C31.7083 49.3437 28.4584 50 25 50Z"
          fill="#90EE90"/>
</svg>
