<svg width="626" height="626" viewBox="0 0 626 626" fill="none" xmlns="http://www.w3.org/2000/svg">
    <path d="M274.527 431.679L459.067 247.14L429.071 217.796L274.527 372.34L196.277 294.09L166.933 323.433L274.527 431.679ZM313 573.833C277.353 573.833 243.662 566.986 211.927 553.293C180.192 539.599 152.479 520.906 128.786 497.214C105.094 473.521 86.401 445.808 72.7073 414.073C59.0135 382.338 52.1667 348.647 52.1667 313C52.1667 276.918 59.0135 243.01 72.7073 211.275C86.401 179.54 105.094 151.935 128.786 128.46C152.479 104.985 180.192 86.401 211.927 72.7073C243.662 59.0135 277.353 52.1667 313 52.1667C349.082 52.1667 382.99 59.0135 414.725 72.7073C446.46 86.401 474.065 104.985 497.54 128.46C521.015 151.935 539.599 179.54 553.293 211.275C566.986 243.01 573.833 276.918 573.833 313C573.833 348.647 566.986 382.338 553.293 414.073C539.599 445.808 521.015 473.521 497.54 497.214C474.065 520.906 446.46 539.599 414.725 553.293C382.99 566.986 349.082 573.833 313 573.833Z"
          fill="#75D554"/>
</svg>
