<svg width="16" height="16" viewBox="0 0 16 16" fill="none" xmlns="http://www.w3.org/2000/svg">
<g clip-path="url(#clip0_104_2)">
<circle cx="8" cy="8" r="8" fill="#19007C"/>
<path d="M6.13953 12C6.12574 12 6.11195 12 6.11195 12C3.93264 10.9793 2.98091 8.39997 3.98781 6.20687C4.55333 4.99308 5.64298 4.11032 6.93953 3.79308C6.98091 3.77928 7.02229 3.80687 7.02229 3.84825C7.03609 3.88963 7.0085 3.93101 6.96712 3.93101C4.70505 4.46894 3.29815 6.7448 3.83609 9.00687C4.13953 10.262 4.99471 11.3241 6.16712 11.862C6.2085 11.8758 6.22229 11.9172 6.2085 11.9586C6.19471 11.9862 6.16712 12 6.13953 12Z" fill="#CCCCCC"/>
<path d="M8.93957 12.2759C8.89819 12.2759 8.87061 12.2483 8.87061 12.1931C8.87061 12.1655 8.89819 12.1242 8.92578 12.1242C11.1878 11.5724 12.5672 9.31036 12.0292 7.04829C11.7258 5.82071 10.8982 4.78622 9.75336 4.24829C9.71198 4.2345 9.69819 4.19312 9.72578 4.15174C9.75336 4.11036 9.78095 4.09657 9.82233 4.12415C11.9878 5.15864 12.912 7.76553 11.8637 9.93105C11.2982 11.1173 10.2361 11.9724 8.96716 12.2759C8.95336 12.2759 8.95336 12.2759 8.93957 12.2759Z" fill="#CCCCCC"/>
<path d="M7.0913 14.2207C7.04992 14.2207 7.00854 14.1931 7.00854 14.1517C7.00854 14.1379 7.00854 14.1379 7.00854 14.1241L7.65682 11.931C7.67061 11.8896 7.71199 11.8759 7.75337 11.8759C7.79475 11.8896 7.80854 11.931 7.80854 11.9724L7.16027 14.1655C7.14648 14.1931 7.11889 14.2207 7.0913 14.2207Z" fill="#F2BC24"/>
<path d="M6.80163 15.2414C6.76025 15.2414 6.71887 15.2138 6.71887 15.1724C6.71887 15.1586 6.71887 15.1586 6.71887 15.1448L6.84301 14.731C6.8568 14.6896 6.89818 14.6758 6.93956 14.6758C6.98094 14.6896 6.99473 14.731 6.99473 14.7724L6.8706 15.1862C6.8568 15.2138 6.82922 15.2414 6.80163 15.2414Z" fill="#F2BC24"/>
<path d="M7.89123 11.5172C7.84985 11.5172 7.80847 11.4897 7.80847 11.4483C7.80847 11.4345 7.80847 11.4345 7.80847 11.4207L7.90502 11.0759C7.91882 11.0345 7.9602 11.0207 8.00157 11.0207C8.04295 11.0345 8.05675 11.0759 8.05675 11.1172L7.9602 11.4621C7.9464 11.4897 7.91882 11.5172 7.89123 11.5172Z" fill="#F2BC24"/>
<path d="M7.90502 13.3103C7.86365 13.3103 7.82227 13.2828 7.82227 13.2414C7.82227 13.2276 7.82227 13.2276 7.82227 13.2138L8.7464 10.0966C8.7602 10.0552 8.80158 10.0414 8.84296 10.0414C8.88433 10.0552 8.89813 10.0966 8.89813 10.1379L7.97399 13.2552C7.9602 13.2828 7.93261 13.2966 7.90502 13.3103Z" fill="#F2BC24"/>
<path d="M8.04296 4.51033C8.00158 4.51033 7.96021 4.48275 7.96021 4.44137C7.96021 4.42758 7.96021 4.42758 7.96021 4.41378L9.00848 0.882748C9.02227 0.841368 9.06365 0.827576 9.10503 0.827576C9.14641 0.827576 9.16021 0.882748 9.16021 0.924128L8.11193 4.45516C8.09814 4.48275 8.08434 4.51033 8.04296 4.51033Z" fill="#F2BC24"/>
<path d="M7.91882 3.1586C7.87744 3.1586 7.83606 3.13101 7.83606 3.08963C7.83606 3.07584 7.83606 3.07584 7.83606 3.06204L7.9602 2.64825C7.97399 2.60687 8.01537 2.59308 8.05675 2.59308C8.09813 2.60687 8.11192 2.64825 8.11192 2.68963L7.98778 3.10342C7.97399 3.13101 7.9464 3.1586 7.91882 3.1586Z" fill="#F2BC24"/>
<path d="M7.07751 6.02757C7.03613 6.02757 6.99475 5.99998 6.99475 5.95861C6.99475 5.94481 6.99475 5.94481 6.99475 5.93102L7.62923 3.80688C7.64303 3.7655 7.68441 3.75171 7.72579 3.75171C7.76716 3.7655 7.78096 3.80688 7.78096 3.84826L7.13268 5.9724C7.13268 5.99998 7.1051 6.02757 7.07751 6.02757Z" fill="#F2BC24"/>
<path d="M8.3188 6.71725C8.59466 6.80001 8.84293 6.96553 9.00845 7.20001C8.89811 7.00691 8.82914 6.80001 8.78776 6.57932C8.77397 6.49656 8.76018 6.40001 8.74638 6.30346C8.56707 6.2207 8.37397 6.16553 8.18087 6.13794C8.12569 6.2207 8.05673 6.28966 7.98776 6.35863C7.83604 6.52415 7.67052 6.66208 7.47742 6.77242C7.73949 6.64829 8.04293 6.63449 8.3188 6.71725Z" fill="#75DFD4"/>
<path d="M11.2568 8.82758C11.0086 8.64827 10.1258 7.97241 9.62925 7.19999C9.76718 7.51724 9.82235 7.87586 9.76718 8.22068C9.84994 8.30344 9.94649 8.39999 10.043 8.49655C10.0568 8.51034 10.0568 8.51034 10.0706 8.52413C10.0568 8.52413 10.043 8.52413 10.043 8.52413C9.90511 8.55172 9.79476 8.5793 9.67063 8.62068C9.3258 8.71724 9.00856 8.84137 8.69131 9.00689C8.64994 9.03448 8.60856 9.06206 8.55338 9.08965C8.34649 9.21379 8.15338 9.36551 7.98787 9.53103C7.93269 9.59999 7.86373 9.66896 7.80856 9.73793C7.61545 9.9862 7.44994 10.2345 7.28442 10.4965C7.28442 10.1931 7.27063 9.87586 7.22925 9.57241C7.21545 9.47586 7.20166 9.3931 7.18787 9.29655C7.13269 9.06206 7.04994 8.82758 6.93959 8.62068C6.91201 8.5793 6.88442 8.53793 6.87063 8.49655C6.59476 7.94482 6.76028 7.25517 7.27063 6.89655C6.96718 7.04827 6.66373 7.17241 6.33269 7.25517C6.27752 7.3793 6.24994 7.51724 6.22235 7.65517C6.16718 8.01379 6.22235 8.39999 6.38787 8.73103C6.42925 8.7862 6.47063 8.85517 6.49821 8.92413C6.58097 9.07586 6.63614 9.24137 6.67752 9.40689C6.9258 10.6207 6.58097 12.6759 6.42925 13.5172V13.531C6.42925 13.5448 6.42925 13.5586 6.45683 13.5586C6.45683 13.5586 6.45683 13.5586 6.47063 13.5586C6.48442 13.5586 6.48442 13.5586 6.49821 13.5448V13.531C6.80166 12.731 7.57407 10.7862 8.40166 9.88965C8.5258 9.76551 8.64994 9.65517 8.80166 9.55861C8.87063 9.51724 8.93959 9.47586 8.99476 9.44827C9.82235 9.02068 10.981 8.89655 11.2844 8.86896C11.2982 8.86896 11.2982 8.85517 11.312 8.84137C11.2706 8.84137 11.2706 8.82758 11.2568 8.82758Z" fill="#75DFD4"/>
<path d="M7.62923 9.1586C7.32578 9.07584 7.0775 8.88274 6.91199 8.62067C7.03613 8.84136 7.11888 9.06205 7.16026 9.29653C7.17406 9.37929 7.18785 9.47584 7.20164 9.57239C7.38095 9.65515 7.57406 9.71032 7.78095 9.73791C7.83613 9.66894 7.90509 9.59998 7.96026 9.53101C8.12578 9.3517 8.31888 9.19998 8.52578 9.08963C8.24992 9.21377 7.93268 9.24136 7.62923 9.1586Z" fill="#F26C4A"/>
<path d="M9.62922 7.19996C9.57404 7.10341 9.50508 7.00686 9.4637 6.89651C9.39473 6.75858 9.35335 6.62065 9.31197 6.46892C9.0637 5.25513 9.40853 3.19996 9.56025 2.35858C9.56025 2.34479 9.56025 2.33099 9.53266 2.33099C9.51887 2.33099 9.50508 2.33099 9.50508 2.35858C9.20163 3.15858 8.42921 5.10341 7.58784 6.01375C7.47749 6.1241 7.36715 6.22065 7.24301 6.30341C7.14646 6.35858 7.0499 6.42755 6.93956 6.46892C6.11197 6.86892 4.99473 6.99306 4.70508 7.02065C4.69128 7.02065 4.69128 7.03444 4.67749 7.04824C4.67749 7.06203 4.67749 7.07582 4.69128 7.07582C4.93956 7.25513 5.8637 7.95858 6.34646 8.75858C6.18094 8.42755 6.12577 8.05513 6.18094 7.68272C6.09818 7.58617 6.00163 7.50341 5.90508 7.40686C5.89128 7.39306 5.89128 7.39306 5.87749 7.37927C5.89128 7.37927 5.90508 7.37927 5.90508 7.37927C6.02921 7.35168 6.15335 7.3241 6.27749 7.28272C6.60852 7.19996 6.91197 7.07582 7.21542 6.9241C7.28439 6.86893 7.36715 6.82755 7.4499 6.78617C7.64301 6.67582 7.80852 6.53789 7.96025 6.37237C8.01542 6.30341 8.08439 6.23444 8.15335 6.15168C8.34646 5.90341 8.51197 5.65513 8.6637 5.39306C8.6637 5.40686 8.6637 5.42065 8.6637 5.42065C8.6637 5.48961 8.6637 5.55858 8.6637 5.64134C8.6637 5.86203 8.69128 6.08272 8.71887 6.30341C8.73266 6.39996 8.74646 6.49651 8.76025 6.57927C8.80163 6.79996 8.88439 7.00686 8.98094 7.19996C9.03611 7.26893 9.07749 7.35168 9.11887 7.43444C9.36715 7.99996 9.16025 8.66203 8.6499 9.00686C8.96715 8.84134 9.28439 8.7172 9.62922 8.62065C9.68439 8.49651 9.71197 8.35858 9.73956 8.22065C9.80853 7.87582 9.76715 7.5172 9.62922 7.19996Z" fill="#F26C4A"/>
</g>
<defs>
<clipPath id="clip0_104_2">
<rect width="16" height="16" fill="white"/>
</clipPath>
</defs>
</svg>
