<svg width="13" height="17" viewBox="0 0 13 17" fill="none" xmlns="http://www.w3.org/2000/svg">
<path d="M10.307 6.34346L12.7584 6.34346L12.7584 3.36591L12.7558 3.36591L9.78602 0.388367L3.84396 0.388366L3.84396 0.390971L0.87162 3.36591L0.874225 3.36591L0.874225 6.34346L3.32295 6.34346L3.32295 2.84491L10.307 2.84491L10.307 6.34346Z" fill="#9FA2A4"/>
<path d="M10.307 10.8059L12.7584 10.8059L12.7584 13.7808L12.7558 13.7808L9.78602 16.7584L3.84396 16.7584L0.87162 13.7808L0.874225 13.7808L0.874225 10.8059L3.32295 10.8059L3.32295 14.3044L10.307 14.3044L10.307 10.8059Z" fill="#9FA2A4"/>
<path d="M5.01362 10.9622C5.01362 11.9563 5.81954 12.7623 6.8137 12.7623C7.80785 12.7623 8.61377 11.9563 8.61377 10.9622C8.61377 9.96803 7.80785 9.16211 6.8137 9.16211C5.81954 9.16211 5.01362 9.96803 5.01362 10.9622Z" fill="#9FA2A4"/>
<path d="M5.01622 6.18716C5.01622 7.18131 5.82214 7.98723 6.81629 7.98723C7.81044 7.98723 8.61636 7.18131 8.61636 6.18716C8.61636 5.19301 7.81044 4.38708 6.81629 4.38708C5.82214 4.38708 5.01622 5.19301 5.01622 6.18716Z" fill="#9FA2A4"/>
</svg>
